<svg xmlns="http://www.w3.org/2000/svg" viewBox="0 0 640 200" font-family="sans-serif" font-size="11">
  <defs>
    <marker id="arrow2" markerWidth="8" markerHeight="8" refX="7" refY="4" orient="auto">
      <path d="M0 0 L8 4 L0 8 z" fill="#333"/>
    </marker>
  </defs>
  <rect width="640" height="200" fill="transparent"/>
  <!-- Stages -->
  <rect x="10" y="70" width="90" height="60" fill="#f5f5f5" stroke="#333" stroke-width="1.5"/>
  <text x="55" y="95" text-anchor="middle" font-weight="bold">Packet Capture</text>
  <text x="55" y="112" text-anchor="middle" fill="#555">Scapy</text>
  <rect x="115" y="70" width="90" height="60" fill="#f5f5f5" stroke="#333" stroke-width="1.5"/>
  <text x="160" y="95" text-anchor="middle" font-weight="bold">Feature</text>
  <text x="160" y="112" text-anchor="middle" fill="#555">Extraction</text>
  <rect x="220" y="70" width="90" height="60" fill="#f5f5f5" stroke="#333" stroke-width="1.5"/>
  <text x="265" y="95" text-anchor="middle" font-weight="bold">Signature</text>
  <text x="265" y="112" text-anchor="middle" fill="#555">Detector</text>
  <rect x="325" y="70" width="90" height="60" fill="#f5f5f5" stroke="#333" stroke-width="1.5"/>
  <text x="370" y="95" text-anchor="middle" font-weight="bold">Anomaly</text>
  <text x="370" y="112" text-anchor="middle" fill="#555">Isolation Forest</text>
  <rect x="430" y="70" width="100" height="60" fill="#f5f5f5" stroke="#333" stroke-width="1.5"/>
  <text x="480" y="92" text-anchor="middle" font-weight="bold">Classifier</text>
  <text x="480" y="108" text-anchor="middle" fill="#555">SecIDS-CNN /</text>
  <text x="480" y="122" text-anchor="middle" fill="#555">Random Forest</text>
  <rect x="545" y="70" width="85" height="60" fill="#f5f5f5" stroke="#333" stroke-width="1.5"/>
  <text x="587" y="95" text-anchor="middle" font-weight="bold">Alerts</text>
  <text x="587" y="112" text-anchor="middle" fill="#555">Log / WebSocket</text>
  <!-- Arrows -->
  <path d="M100 100 L115 100" stroke="#333" stroke-width="1.5" fill="none" marker-end="url(#arrow2)"/>
  <path d="M205 100 L220 100" stroke="#333" stroke-width="1.5" fill="none" marker-end="url(#arrow2)"/>
  <path d="M310 100 L325 100" stroke="#333" stroke-width="1.5" fill="none" marker-end="url(#arrow2)"/>
  <path d="M415 100 L430 100" stroke="#333" stroke-width="1.5" fill="none" marker-end="url(#arrow2)"/>
  <path d="M530 100 L545 100" stroke="#333" stroke-width="1.5" fill="none" marker-end="url(#arrow2)"/>
</svg>
