<svg xmlns="http://www.w3.org/2000/svg" viewBox="0 0 620 220" font-family="sans-serif" font-size="11">
  <defs>
    <marker id="arrow3" markerWidth="8" markerHeight="8" refX="7" refY="4" orient="auto">
      <path d="M0 0 L8 4 L0 8 z" fill="#333"/>
    </marker>
  </defs>
  <rect width="620" height="220" fill="transparent"/>
  <!-- Main flow -->
  <rect x="8" y="80" width="72" height="60" fill="#f5f5f5" stroke="#333" stroke-width="1.5"/>
  <text x="44" y="105" text-anchor="middle" font-weight="bold">Upload</text>
  <text x="44" y="122" text-anchor="middle" fill="#555">PCAP</text>
  <rect x="95" y="80" width="72" height="60" fill="#f5f5f5" stroke="#333" stroke-width="1.5"/>
  <text x="131" y="105" text-anchor="middle" font-weight="bold">Scapy</text>
  <text x="131" y="122" text-anchor="middle" fill="#555">rdpcap</text>
  <rect x="182" y="80" width="80" height="60" fill="#f5f5f5" stroke="#333" stroke-width="1.5"/>
  <text x="222" y="98" text-anchor="middle" font-weight="bold">Summarize</text>
  <text x="222" y="115" text-anchor="middle" fill="#555">+ feature dict</text>
  <rect x="277" y="80" width="86" height="60" fill="#f5f5f5" stroke="#333" stroke-width="1.5"/>
  <text x="320" y="98" text-anchor="middle" font-weight="bold">Heuristic</text>
  <text x="320" y="115" text-anchor="middle" fill="#555">detections</text>
  <rect x="378" y="80" width="72" height="60" fill="#e8e8e8" stroke="#555" stroke-width="1.5"/>
  <text x="414" y="98" text-anchor="middle" font-weight="bold">Optional</text>
  <text x="414" y="115" text-anchor="middle" fill="#555">ML</text>
  <rect x="465" y="80" width="72" height="60" fill="#f5f5f5" stroke="#333" stroke-width="1.5"/>
  <text x="501" y="105" text-anchor="middle" font-weight="bold">Response</text>
  <text x="501" y="122" text-anchor="middle" fill="#555">summary, risk</text>
  <!-- Arrows main -->
  <path d="M80 110 L95 110" stroke="#333" stroke-width="1.5" fill="none" marker-end="url(#arrow3)"/>
  <path d="M167 110 L182 110" stroke="#333" stroke-width="1.5" fill="none" marker-end="url(#arrow3)"/>
  <path d="M262 110 L277 110" stroke="#333" stroke-width="1.5" fill="none" marker-end="url(#arrow3)"/>
  <path d="M363 110 L378 110" stroke="#333" stroke-width="1.5" fill="none" marker-end="url(#arrow3)"/>
  <path d="M450 110 L465 110" stroke="#333" stroke-width="1.5" fill="none" marker-end="url(#arrow3)"/>
  <!-- Optional ML branch label -->
  <text x="414" y="165" text-anchor="middle" fill="#555" font-size="10">SecIDS-CNN / classifier</text>
</svg>
